<?xml version="1.0" encoding="utf-8"?>
<!-- Generator: Adobe Illustrator 18.1.1, SVG Export Plug-In . SVG Version: 6.00 Build 0)  -->
<svg version="1.1" id="Layer_1" xmlns="http://www.w3.org/2000/svg" xmlns:xlink="http://www.w3.org/1999/xlink" x="0px" y="0px"
	 viewBox="8.7 29.9 208 135.4" enable-background="new 8.7 29.9 208 135.4" xml:space="preserve">
<g>
	<g>
		<path fill="#404041" d="M156.5,67.6c-0.8-1.1-1.7-2-2.6-2.7c-0.8-0.7-1.8-1.3-2.8-1.9c1.8-1.2,3.5-2.9,5.1-5.1
			c1.6-2.2,2.4-4.9,2.4-8.3c0-6-1.9-10.7-5.6-14.2c-3.8-3.5-9.1-5.3-16-5.3H109v20.9l-7.6-20.9H88.5L63.8,97.7h17.4l2.9-8.6l0.5-1.5
			l0,0l4.7-13.9h-0.1l6.1-18.1l5.7,18.1h-6.9l-4.7,13.9h15.9l3.1,10.1h0.3h17h12.4c6.3,0,11.3-1.7,15.2-5.3c4-3.5,5.9-8.4,5.9-14.7
			c0-2.2-0.3-4.2-0.8-5.8C158.1,70.2,157.4,68.8,156.5,67.6z M141.4,81c-1,1.2-2.5,1.7-4.6,1.7h-11.3V81V70.9V55.9v-9.3v-1.7h10.3
			c2.1,0,3.6,0.6,4.6,1.6c1,1,1.5,2.4,1.5,3.9s-0.5,2.8-1.5,3.9s-2.5,1.6-4.6,1.6h-5.1v14.9h5.9c2.1,0,3.6,0.6,4.6,1.7
			c1,1.2,1.5,2.6,1.5,4.2C142.9,78.4,142.4,79.8,141.4,81z"/>
		<polygon fill="#404041" points="187.5,34.6 178.4,43.7 198.5,63.8 178.4,83.9 187.5,93 216.7,63.8 		"/>
		<polygon fill="#404041" points="46.9,43.7 37.9,34.6 8.7,63.8 37.9,93 46.9,83.9 26.9,63.8 		"/>
	</g>
	<g>
		<path fill="#D6DE23" d="M156.5,135.3c-0.8-1.1-1.7-2-2.6-2.7s-1.8-1.3-2.8-1.9c1.8-1.2,3.5-2.9,5.1-5.1c1.6-2.2,2.4-4.9,2.4-8.3
			c0-6-1.9-10.7-5.6-14.2c-3.8-3.5-9.1-5.3-16-5.3H109v20.9l-7.6-20.9H88.5l-24.7,67.7h17.4l2.9-8.6l0.5-1.5l0,0l4.7-13.9h-0.1
			l6.1-18.1l5.7,18.1h-6.9l-4.7,13.9h15.9l3.1,10.1h0.3h17h12.4c6.3,0,11.3-1.7,15.2-5.3c4-3.5,5.9-8.4,5.9-14.7
			c0-2.2-0.3-4.2-0.8-5.8C158.1,137.9,157.4,136.5,156.5,135.3z M141.4,148.7c-1,1.2-2.5,1.7-4.6,1.7h-11.3v-1.7v-10.1v-14.9v-9.3
			v-1.7h10.3c2.1,0,3.6,0.6,4.6,1.6c1,1,1.5,2.4,1.5,3.9s-0.5,2.8-1.5,3.9c-1,1-2.5,1.6-4.6,1.6h-5.1v14.9h5.9
			c2.1,0,3.6,0.6,4.6,1.7c1,1.2,1.5,2.6,1.5,4.2C142.9,146.1,142.4,147.5,141.4,148.7z"/>
		<polygon fill="#D6DE23" points="187.5,102.3 178.4,111.4 198.5,131.6 178.4,151.6 187.5,160.7 216.7,131.6 		"/>
		<polygon fill="#D6DE23" points="46.9,111.4 37.9,102.3 8.7,131.6 37.9,160.7 46.9,151.6 26.9,131.6 		"/>
	</g>
</g>
</svg>
